<?xml version="1.0" encoding="UTF-8" standalone="no"?>
<!DOCTYPE svg PUBLIC "-//W3C//DTD SVG 20010904//EN"
              "http://www.w3.org/TR/2001/REC-SVG-20010904/DTD/svg10.dtd">

<svg xmlns="http://www.w3.org/2000/svg"
     width="1.38889in" height="0.944444in"
     viewBox="0 0 125 85">
  <path id="background"
        fill="rgba(144,195,73,0.8)"
        stroke="rgba(144,195,73,0.8)"
        stroke-width="1"
        d="M 1.00,1.00
           C 1.00,1.00 1.00,84.00 1.00,84.00
             1.00,84.00 124.00,84.00 124.00,84.00
             124.00,84.00 124.00,1.00 124.00,1.00
             124.00,1.00 1.00,1.00 1.00,1.00 Z
           M 48.00,14.00
           C 45.38,19.58 41.16,22.81 37.95,28.00
             32.27,37.18 31.66,48.49 36.90,58.00
             40.35,64.25 44.42,66.32 48.00,73.00
             48.00,73.00 24.00,73.00 24.00,73.00
             20.30,72.99 16.30,73.36 13.42,70.57
             10.74,67.98 9.45,61.65 8.73,58.00
             6.35,47.34 6.67,39.65 8.73,29.00
             9.45,25.79 10.94,19.90 12.99,17.42
             15.66,14.19 20.15,14.05 24.00,14.00
             24.00,14.00 48.00,14.00 48.00,14.00 Z
           M 74.00,73.00
           C 78.12,61.76 86.03,53.33 86.91,39.00
             87.20,34.28 85.91,30.53 85.00,26.00
             83.18,28.91 81.40,32.15 77.98,33.40
             70.64,36.08 64.51,29.09 66.43,22.00
             69.28,11.45 89.39,13.99 98.00,14.00
             102.09,14.01 106.43,13.73 109.79,16.51
             112.96,19.14 114.48,24.10 115.47,28.00
             117.51,38.00 117.61,48.00 115.47,58.00
             114.85,61.75 113.99,66.70 111.35,69.61
             108.50,72.76 104.94,72.94 101.00,73.00
             101.00,73.00 74.00,73.00 74.00,73.00 Z" />
  <path id="logo"
        fill="rgba(255,255,255,1)"
        stroke="rgba(255,255,255,1)"
        stroke-width="1"
        d="M 48.00,14.00
           C 45.38,19.58 41.16,22.81 37.95,28.00
             32.27,37.18 31.66,48.49 36.90,58.00
             40.35,64.25 44.42,66.32 48.00,73.00
             48.00,73.00 24.00,73.00 24.00,73.00
             20.30,72.99 16.30,73.36 13.42,70.57
             10.74,67.98 9.45,61.65 8.73,58.00
             6.35,47.34 6.67,39.65 8.73,29.00
             9.45,25.79 10.94,19.90 12.99,17.42
             15.66,14.19 20.15,14.05 24.00,14.00
             24.00,14.00 48.00,14.00 48.00,14.00 Z
           M 74.00,73.00
           C 78.12,61.76 86.03,53.33 86.91,39.00
             87.20,34.28 85.91,30.53 85.00,26.00
             83.18,28.91 81.40,32.15 77.98,33.40
             70.64,36.08 64.51,29.09 66.43,22.00
             69.28,11.45 89.39,13.99 98.00,14.00
             102.09,14.01 106.43,13.73 109.79,16.51
             112.96,19.14 114.48,24.10 115.47,28.00
             117.51,38.00 117.61,48.00 115.47,58.00
             114.85,61.75 113.99,66.70 111.35,69.61
             108.50,72.76 104.94,72.94 101.00,73.00
             101.00,73.00 74.00,73.00 74.00,73.00 Z" />
</svg>
