<?xml version="1.0" encoding="UTF-8" standalone="no"?>
<!DOCTYPE svg PUBLIC "-//W3C//DTD SVG 20010904//EN"
              "http://www.w3.org/TR/2001/REC-SVG-20010904/DTD/svg10.dtd">

<svg xmlns="http://www.w3.org/2000/svg"
     width="56.6287mm" height="59.2749mm"
     viewBox="0 0 214 224">
  <path id="Selection"
        fill="rgba(52, 151, 219, 1)" stroke="black" stroke-width="1"
        d="M 98.00,1.00
           C 98.00,1.00 98.00,27.00 98.00,27.00
             98.00,27.00 68.00,12.00 68.00,12.00
             68.00,12.00 68.00,24.00 68.00,24.00
             68.00,24.00 69.02,31.79 69.02,31.79
             69.02,31.79 77.00,37.60 77.00,37.60
             77.00,37.60 94.00,47.42 94.00,47.42
             94.00,47.42 107.00,53.58 107.00,53.58
             107.00,53.58 119.00,48.01 119.00,48.01
             119.00,48.01 137.00,37.60 137.00,37.60
             137.00,37.60 144.40,32.61 144.40,32.61
             144.40,32.61 146.00,26.00 146.00,26.00
             146.00,26.00 146.00,12.00 146.00,12.00
             146.00,12.00 116.00,27.00 116.00,27.00
             116.00,27.00 116.00,1.00 116.00,1.00
             116.00,1.00 98.00,1.00 98.00,1.00 Z
           M 39.00,29.00
           C 39.00,29.00 39.00,62.00 39.00,62.00
             39.00,62.00 23.00,52.42 23.00,52.42
             21.18,51.41 18.25,49.63 16.10,49.99
             12.23,50.63 6.14,62.17 8.64,65.61
             10.37,68.00 24.64,75.50 28.00,77.00
             28.00,77.00 28.00,79.00 28.00,79.00
             28.00,79.00 1.00,94.00 1.00,94.00
             1.00,94.00 1.00,96.00 1.00,96.00
             4.05,97.76 14.28,103.91 17.00,104.45
             20.73,105.19 23.94,102.79 27.00,101.01
             27.00,101.01 45.00,90.74 45.00,90.74
             46.88,90.24 48.03,90.05 50.00,90.74
             53.01,91.37 65.50,98.70 66.98,101.21
             68.38,103.59 68.00,109.14 68.00,112.00
             62.68,109.63 51.94,101.87 47.00,102.49
             44.27,102.84 40.47,105.32 38.00,106.70
             34.20,108.81 33.09,109.05 31.00,113.00
             31.00,113.00 55.00,127.01 55.00,127.01
             55.00,127.01 65.69,133.63 65.69,133.63
             71.49,139.23 63.37,144.93 73.02,150.99
             73.02,150.99 92.00,162.00 92.00,162.00
             95.78,164.37 98.97,166.86 97.68,171.90
             96.80,175.35 92.85,177.09 90.00,178.72
             90.00,178.72 69.57,190.95 69.57,190.95
             66.92,193.74 68.00,207.69 68.00,212.00
             68.00,212.00 98.00,197.00 98.00,197.00
             98.00,197.00 98.00,223.00 98.00,223.00
             98.00,223.00 116.00,223.00 116.00,223.00
             116.00,223.00 116.00,197.00 116.00,197.00
             116.00,197.00 146.00,212.00 146.00,212.00
             146.00,207.69 147.08,193.74 144.43,190.95
             144.43,190.95 124.00,178.72 124.00,178.72
             121.15,177.09 117.20,175.35 116.32,171.90
             115.03,166.86 118.22,164.37 122.00,162.00
             122.00,162.00 140.98,150.99 140.98,150.99
             150.63,144.93 142.51,139.23 148.31,133.63
             148.31,133.63 159.00,127.01 159.00,127.01
             159.00,127.01 183.00,113.00 183.00,113.00
             180.91,109.05 179.80,108.81 176.00,106.70
             173.53,105.32 169.73,102.84 167.00,102.49
             162.06,101.87 151.32,109.63 146.00,112.00
             146.00,109.59 145.77,104.13 146.60,102.10
             148.36,97.78 163.40,89.40 168.00,90.56
             168.00,90.56 194.00,104.45 194.00,104.45
             198.72,105.40 208.70,98.48 213.00,96.00
             213.00,96.00 213.00,94.00 213.00,94.00
             213.00,94.00 186.00,79.00 186.00,79.00
             186.00,79.00 186.00,77.00 186.00,77.00
             189.36,75.50 203.63,68.00 205.36,65.61
             207.86,62.17 201.77,50.63 197.90,49.99
             195.75,49.63 192.82,51.41 191.00,52.42
             191.00,52.42 175.00,62.00 175.00,62.00
             175.00,62.00 175.00,29.00 175.00,29.00
             171.11,30.11 160.10,35.11 158.02,38.39
             156.78,40.35 157.00,43.72 157.00,46.00
             157.00,46.00 157.00,64.00 157.00,64.00
             157.00,66.31 157.22,69.63 155.98,71.62
             153.36,75.82 130.60,85.72 127.99,89.61
             126.83,91.33 127.01,93.99 127.00,96.00
             127.00,96.00 127.00,129.00 127.00,129.00
             127.00,131.28 127.22,134.65 125.98,136.61
             124.30,139.25 110.12,147.22 107.00,147.22
             103.88,147.22 89.70,139.25 88.02,136.61
             86.78,134.65 87.00,131.28 87.00,129.00
             87.00,129.00 87.00,95.00 87.00,95.00
             86.87,87.40 83.22,87.15 77.00,83.58
             73.00,81.28 59.14,74.37 57.60,70.79
             56.88,69.11 57.00,65.88 57.00,64.00
             57.00,64.00 57.00,45.00 57.00,45.00
             56.99,42.91 57.13,40.21 55.98,38.39
             53.90,35.11 42.89,30.11 39.00,29.00 Z
           M 68.00,46.00
           C 68.00,46.00 68.00,58.00 68.00,58.00
             68.00,58.00 69.02,65.79 69.02,65.79
             69.02,65.79 77.00,71.60 77.00,71.60
             77.00,71.60 94.00,81.58 94.00,81.58
             94.00,81.58 107.00,87.58 107.00,87.58
             107.00,87.58 118.00,82.72 118.00,82.72
             118.00,82.72 136.00,72.20 136.00,72.20
             136.00,72.20 144.40,66.61 144.40,66.61
             144.40,66.61 146.00,60.00 146.00,60.00
             146.00,60.00 146.00,46.00 146.00,46.00
             138.41,47.44 126.16,55.88 119.00,60.00
             116.27,61.57 109.90,65.71 107.00,65.71
             104.10,65.71 97.73,61.57 95.00,60.00
             87.84,55.88 75.59,47.44 68.00,46.00 Z
           M 1.00,128.00
           C 1.00,128.00 1.00,130.00 1.00,130.00
             1.00,130.00 29.00,147.00 29.00,147.00
             23.94,148.45 16.51,152.69 12.02,155.62
             10.01,156.93 7.74,158.34 7.73,161.04
             7.72,163.44 13.47,172.34 15.00,175.00
             21.67,173.05 40.03,161.73 47.00,157.60
             50.14,155.74 55.68,153.47 56.71,149.82
             57.29,147.74 57.19,142.36 56.01,140.53
             54.54,138.26 48.51,135.15 46.00,133.72
             41.73,131.29 23.20,120.18 20.00,119.55
             15.19,118.60 5.26,125.44 1.00,128.00 Z
           M 199.00,175.00
           C 200.53,172.34 206.28,163.44 206.27,161.04
             206.26,158.34 203.99,156.93 201.98,155.62
             197.49,152.69 190.06,148.45 185.00,147.00
             185.00,147.00 213.00,130.00 213.00,130.00
             213.00,130.00 213.00,128.00 213.00,128.00
             209.85,126.11 200.08,120.16 197.00,119.55
             192.82,118.72 187.54,122.55 184.00,124.58
             184.00,124.58 166.00,134.85 166.00,134.85
             163.83,136.09 159.30,138.51 157.99,140.53
             156.81,142.36 156.71,147.74 157.29,149.82
             158.32,153.47 163.86,155.74 167.00,157.60
             173.97,161.73 192.33,173.05 199.00,175.00 Z
           M 39.00,196.00
           C 39.00,196.00 83.00,171.00 83.00,171.00
             83.00,171.00 83.00,169.00 83.00,169.00
             79.68,166.83 69.52,160.05 66.00,159.89
             62.99,159.75 58.59,162.84 56.00,164.40
             52.57,166.46 40.92,172.28 39.57,175.33
             38.92,176.80 39.01,179.37 39.00,181.00
             39.00,181.00 39.00,196.00 39.00,196.00 Z
           M 131.00,169.00
           C 131.00,169.00 131.00,171.00 131.00,171.00
             131.00,171.00 175.00,196.00 175.00,196.00
             175.00,196.00 175.00,180.00 175.00,180.00
             175.00,180.00 174.01,174.53 174.01,174.53
             174.01,174.53 157.00,163.80 157.00,163.80
             157.00,163.80 148.00,159.89 148.00,159.89
             148.00,159.89 131.00,169.00 131.00,169.00 Z" />
</svg>
